# MagicaVoxel @ Ephtracy

# group
o 

# material
mtllib Woodlog.mtl
usemtl palette

# normals
vn -1 0 0
vn 1 0 0
vn 0 0 1
vn 0 0 -1
vn 0 -1 0
vn 0 1 0

# texcoords
vt 0.0605469 0.5
vt 0.228516 0.5
vt 0.537109 0.5
vt 0.701172 0.5

# verts
v -7.9 0 2.7
v -7.9 0 -2.7
v -7.9 1.4 4
v -7.9 1.4 2.7
v -7.9 1.4 -2.7
v -7.9 1.4 -4
v -7.9 1.8 2.3
v -7.9 1.8 -2.3
v -7.9 1.9 2.2
v -7.9 1.9 -2.2
v -7.9 2.2 1.9
v -7.9 2.2 -1.9
v -7.9 2.3 1.8
v -7.9 2.3 -1.8
v -7.9 2.6 1.5
v -7.9 2.6 -1.5
v -7.9 2.7 1.4
v -7.9 2.7 -1.4
v -7.9 3 1.1
v -7.9 3 -1.1
v -7.9 3.1 1
v -7.9 3.1 -1
v -7.9 3.4 0.6
v -7.9 3.4 -0.6
v -7.9 4.6 0.6
v -7.9 4.6 -0.6
v -7.9 4.9 1
v -7.9 4.9 -1
v -7.9 5 1.1
v -7.9 5 -1.1
v -7.9 5.3 1.4
v -7.9 5.3 -1.4
v -7.9 5.4 1.5
v -7.9 5.4 -1.5
v -7.9 5.7 1.8
v -7.9 5.7 -1.8
v -7.9 5.8 1.9
v -7.9 5.8 -1.9
v -7.9 6.1 2.2
v -7.9 6.1 -2.2
v -7.9 6.2 2.3
v -7.9 6.2 -2.3
v -7.9 6.6 4
v -7.9 6.6 2.7
v -7.9 6.6 -2.7
v -7.9 6.6 -4
v -7.9 8 2.7
v -7.9 8 -2.7
v 10.1 0 2.7
v 10.1 0 2.5
v 10.1 0 1.5
v 10.1 0 -2.7
v 10.1 0.4 2.5
v 10.1 0.4 1.5
v 10.1 1.4 4
v 10.1 1.4 2.7
v 10.1 1.4 -2.7
v 10.1 1.4 -4
v 10.1 1.7 2.4
v 10.1 1.7 -2.4
v 10.1 1.8 2.3
v 10.1 1.8 -2.3
v 10.1 2.1 2
v 10.1 2.1 -2
v 10.1 2.2 1.9
v 10.1 2.2 -1.9
v 10.1 2.5 1.6
v 10.1 2.5 -1.6
v 10.1 2.6 4
v 10.1 2.6 3.5
v 10.1 2.6 1.5
v 10.1 2.6 -1.5
v 10.1 2.9 1.2
v 10.1 2.9 -1.2
v 10.1 3 4
v 10.1 3 3.5
v 10.1 3 1.1
v 10.1 3 -1.1
v 10.1 3.4 0.6
v 10.1 3.4 -0.6
v 10.1 4.6 4
v 10.1 4.6 3.3
v 10.1 4.6 0.6
v 10.1 4.6 -0.6
v 10.1 5 1.1
v 10.1 5 -1.1
v 10.1 5.1 1.2
v 10.1 5.1 -1.2
v 10.1 5.3 4
v 10.1 5.3 3.3
v 10.1 5.4 1.5
v 10.1 5.4 -1.5
v 10.1 5.5 1.6
v 10.1 5.5 -1.6
v 10.1 5.8 1.9
v 10.1 5.8 -1.9
v 10.1 5.9 2
v 10.1 5.9 -2
v 10.1 6.2 2.3
v 10.1 6.2 -2.3
v 10.1 6.3 2.4
v 10.1 6.3 -2.4
v 10.1 6.6 4
v 10.1 6.6 2.7
v 10.1 6.6 -2.7
v 10.1 6.6 -4
v 10.1 6.9 -0.8
v 10.1 6.9 -1.9
v 10.1 8 2.7
v 10.1 8 -0.8
v 10.1 8 -1.9
v 10.1 8 -2.7
v -7.9 1.4 4
v -7.9 6.6 4
v -6.9 6.1 4
v -6.9 6.6 4
v -5.7 2.6 4
v -5.7 3.3 4
v -4.1 4.5 4
v -4.1 4.9 4
v -2.7 4.5 4
v -2.7 4.9 4
v -2 4.8 4
v -2 4.9 4
v -2 6.1 4
v -2 6.6 4
v -1.6 2.6 4
v -1.6 3.3 4
v -0.9 4.8 4
v -0.9 4.9 4
v 1.2 3.5 4
v 1.2 4.7 4
v 2.5 1.8 4
v 2.5 2.7 4
v 4.3 1.8 4
v 4.3 2.7 4
v 4.3 6.1 4
v 4.3 6.6 4
v 6.1 2 4
v 6.1 2.4 4
v 7 6.1 4
v 7 6.6 4
v 7.2 2 4
v 7.2 2.4 4
v 7.4 3.5 4
v 7.4 4.7 4
v 9.4 2.6 4
v 9.4 3 4
v 9.7 4.6 4
v 9.7 5.3 4
v 10.1 1.4 4
v 10.1 2.6 4
v 10.1 3 4
v 10.1 4.6 4
v 10.1 5.3 4
v 10.1 6.6 4
v -7.9 0 2.7
v -7.9 1.4 2.7
v -7.9 6.6 2.7
v -7.9 8 2.7
v -7.6 0 2.7
v -7.6 0.3 2.7
v -6.9 6.6 2.7
v -5.7 7.6 2.7
v -5.7 8 2.7
v -3.3 0 2.7
v -3.3 0.3 2.7
v -2 6.6 2.7
v 0.2 7.6 2.7
v 0.2 8 2.7
v 10.1 0 2.7
v 10.1 1.4 2.7
v 10.1 6.6 2.7
v 10.1 8 2.7
v -7.9 0 -2.7
v -7.9 1.4 -2.7
v -7.9 6.6 -2.7
v -7.9 8 -2.7
v -6.9 0.7 -2.7
v -6.9 1.4 -2.7
v 2 0.7 -2.7
v 2 1.4 -2.7
v 6.4 1.1 -2.7
v 6.4 1.4 -2.7
v 9.7 1.1 -2.7
v 9.7 1.4 -2.7
v 10.1 0 -2.7
v 10.1 1.4 -2.7
v 10.1 6.6 -2.7
v 10.1 8 -2.7
v -7.9 1.4 -4
v -7.9 6.6 -4
v -7.2 5.2 -4
v -7.2 6.1 -4
v -6.9 1.4 -4
v -6.9 2.2 -4
v -1.6 5.2 -4
v -1.6 6.1 -4
v -0.0999999 3.2 -4
v -0.0999999 4.1 -4
v 2 1.4 -4
v 2 2.2 -4
v 4.3 5.8 -4
v 4.3 6.6 -4
v 5.6 3.2 -4
v 5.6 4.1 -4
v 6.4 1.4 -4
v 6.4 1.9 -4
v 9.4 5.8 -4
v 9.4 6.6 -4
v 9.7 1.4 -4
v 9.7 1.9 -4
v 10.1 1.4 -4
v 10.1 6.6 -4
v -7.9 0 2.7
v -7.6 0 2.7
v -3.3 0 2.7
v 10.1 0 2.7
v 7.7 0 2.5
v 10.1 0 2.5
v -7.6 0 2
v -3.3 0 2
v 7.7 0 1.5
v 10.1 0 1.5
v -3.3 0 0.9
v 2.2 0 0.9
v 3.8 0 0.2
v 8.3 0 0.2
v -3.3 0 -0.1
v 2.2 0 -0.1
v 3.8 0 -0.8
v 8.3 0 -0.8
v -7.9 0 -2.7
v 10.1 0 -2.7
v -7.9 1.4 4
v 10.1 1.4 4
v -7.9 1.4 2.7
v 10.1 1.4 2.7
v -7.9 1.4 -2.7
v -6.9 1.4 -2.7
v 2 1.4 -2.7
v 6.4 1.4 -2.7
v 9.7 1.4 -2.7
v 10.1 1.4 -2.7
v -7.9 1.4 -4
v -6.9 1.4 -4
v 2 1.4 -4
v 6.4 1.4 -4
v 9.7 1.4 -4
v 10.1 1.4 -4
v -7.9 6.6 4
v -6.9 6.6 4
v -2 6.6 4
v 4.3 6.6 4
v 7 6.6 4
v 10.1 6.6 4
v 4.3 6.6 3.7
v 7 6.6 3.7
v -7.9 6.6 2.7
v -6.9 6.6 2.7
v -2 6.6 2.7
v 10.1 6.6 2.7
v -7.9 6.6 -2.7
v 10.1 6.6 -2.7
v 4.3 6.6 -3.5
v 9.4 6.6 -3.5
v -7.9 6.6 -4
v 4.3 6.6 -4
v 9.4 6.6 -4
v 10.1 6.6 -4
v -7.9 8 2.7
v -5.7 8 2.7
v 0.2 8 2.7
v 10.1 8 2.7
v 3.7 8 2.2
v 8.9 8 2.2
v -5.7 8 1
v 0.2 8 1
v 3.7 8 0.6
v 8.9 8 0.6
v -3.5 8 -0.5
v 2.4 8 -0.5
v 8.4 8 -0.8
v 10.1 8 -0.8
v -3.5 8 -1.9
v 2.4 8 -1.9
v 8.4 8 -1.9
v 10.1 8 -1.9
v -7.9 8 -2.7
v 10.1 8 -2.7

# faces
f 4/3/1 2/3/1 1/3/1
f 5/3/1 2/3/1 4/3/1
f 7/1/1 5/1/1 4/1/1
f 8/1/1 5/1/1 7/1/1
f 9/4/1 8/4/1 7/4/1
f 10/4/1 8/4/1 9/4/1
f 11/1/1 10/1/1 9/1/1
f 12/1/1 10/1/1 11/1/1
f 13/4/1 12/4/1 11/4/1
f 14/4/1 12/4/1 13/4/1
f 15/1/1 14/1/1 13/1/1
f 16/1/1 14/1/1 15/1/1
f 17/4/1 16/4/1 15/4/1
f 18/4/1 16/4/1 17/4/1
f 19/1/1 18/1/1 17/1/1
f 20/1/1 18/1/1 19/1/1
f 21/4/1 20/4/1 19/4/1
f 22/4/1 20/4/1 21/4/1
f 23/1/1 22/1/1 21/1/1
f 24/1/1 22/1/1 23/1/1
f 25/1/1 23/1/1 21/1/1
f 25/4/1 24/4/1 23/4/1
f 26/1/1 22/1/1 24/1/1
f 26/4/1 24/4/1 25/4/1
f 27/4/1 21/4/1 19/4/1
f 27/1/1 25/1/1 21/1/1
f 27/1/1 26/1/1 25/1/1
f 28/1/1 22/1/1 26/1/1
f 28/1/1 26/1/1 27/1/1
f 28/4/1 20/4/1 22/4/1
f 29/1/1 19/1/1 17/1/1
f 29/4/1 27/4/1 19/4/1
f 29/4/1 28/4/1 27/4/1
f 30/4/1 20/4/1 28/4/1
f 30/4/1 28/4/1 29/4/1
f 30/1/1 18/1/1 20/1/1
f 31/4/1 17/4/1 15/4/1
f 31/1/1 29/1/1 17/1/1
f 31/1/1 30/1/1 29/1/1
f 32/1/1 18/1/1 30/1/1
f 32/1/1 30/1/1 31/1/1
f 32/4/1 16/4/1 18/4/1
f 33/1/1 15/1/1 13/1/1
f 33/4/1 31/4/1 15/4/1
f 33/4/1 32/4/1 31/4/1
f 34/4/1 16/4/1 32/4/1
f 34/4/1 32/4/1 33/4/1
f 34/1/1 14/1/1 16/1/1
f 35/4/1 13/4/1 11/4/1
f 35/1/1 33/1/1 13/1/1
f 35/1/1 34/1/1 33/1/1
f 36/1/1 14/1/1 34/1/1
f 36/1/1 34/1/1 35/1/1
f 36/4/1 12/4/1 14/4/1
f 37/1/1 11/1/1 9/1/1
f 37/4/1 35/4/1 11/4/1
f 37/4/1 36/4/1 35/4/1
f 38/4/1 12/4/1 36/4/1
f 38/4/1 36/4/1 37/4/1
f 38/1/1 10/1/1 12/1/1
f 39/4/1 9/4/1 7/4/1
f 39/1/1 37/1/1 9/1/1
f 39/1/1 38/1/1 37/1/1
f 40/1/1 10/1/1 38/1/1
f 40/1/1 38/1/1 39/1/1
f 40/4/1 8/4/1 10/4/1
f 41/1/1 7/1/1 4/1/1
f 41/4/1 39/4/1 7/4/1
f 41/4/1 40/4/1 39/4/1
f 42/4/1 8/4/1 40/4/1
f 42/4/1 40/4/1 41/4/1
f 42/1/1 5/1/1 8/1/1
f 43/3/1 4/3/1 3/3/1
f 44/1/1 41/1/1 4/1/1
f 44/3/1 4/3/1 43/3/1
f 44/1/1 42/1/1 41/1/1
f 45/1/1 5/1/1 42/1/1
f 45/1/1 42/1/1 44/1/1
f 45/3/1 6/3/1 5/3/1
f 46/3/1 6/3/1 45/3/1
f 47/3/1 45/3/1 44/3/1
f 48/3/1 45/3/1 47/3/1
f 49/3/2 50/3/2 53/3/2
f 50/2/2 51/2/2 53/2/2
f 51/3/2 52/3/2 54/3/2
f 53/2/2 51/2/2 54/2/2
f 49/3/2 53/3/2 56/3/2
f 53/3/2 54/3/2 56/3/2
f 54/3/2 52/3/2 57/3/2
f 56/3/2 54/3/2 57/3/2
f 56/1/2 57/1/2 59/1/2
f 59/1/2 57/1/2 60/1/2
f 59/4/2 60/4/2 61/4/2
f 61/4/2 60/4/2 62/4/2
f 61/1/2 62/1/2 63/1/2
f 63/1/2 62/1/2 64/1/2
f 63/4/2 64/4/2 65/4/2
f 65/4/2 64/4/2 66/4/2
f 65/1/2 66/1/2 67/1/2
f 67/1/2 66/1/2 68/1/2
f 55/3/2 56/3/2 69/3/2
f 69/3/2 56/3/2 70/3/2
f 67/4/2 68/4/2 71/4/2
f 71/4/2 68/4/2 72/4/2
f 71/1/2 72/1/2 73/1/2
f 73/1/2 72/1/2 74/1/2
f 69/2/2 70/2/2 75/2/2
f 70/3/2 56/3/2 76/3/2
f 75/2/2 70/2/2 76/2/2
f 73/4/2 74/4/2 77/4/2
f 77/4/2 74/4/2 78/4/2
f 77/1/2 78/1/2 79/1/2
f 79/1/2 78/1/2 80/1/2
f 75/3/2 76/3/2 81/3/2
f 76/3/2 56/3/2 82/3/2
f 81/3/2 76/3/2 82/3/2
f 77/1/2 79/1/2 83/1/2
f 79/4/2 80/4/2 83/4/2
f 80/1/2 78/1/2 84/1/2
f 83/4/2 80/4/2 84/4/2
f 77/1/2 83/1/2 85/1/2
f 73/4/2 77/4/2 85/4/2
f 83/1/2 84/1/2 85/1/2
f 84/1/2 78/1/2 86/1/2
f 85/1/2 84/1/2 86/1/2
f 78/4/2 74/4/2 86/4/2
f 71/1/2 73/1/2 87/1/2
f 73/4/2 85/4/2 87/4/2
f 85/4/2 86/4/2 87/4/2
f 74/1/2 72/1/2 88/1/2
f 87/4/2 86/4/2 88/4/2
f 86/4/2 74/4/2 88/4/2
f 81/2/2 82/2/2 89/2/2
f 82/3/2 56/3/2 90/3/2
f 89/2/2 82/2/2 90/2/2
f 71/1/2 87/1/2 91/1/2
f 67/4/2 71/4/2 91/4/2
f 87/1/2 88/1/2 91/1/2
f 72/4/2 68/4/2 92/4/2
f 91/1/2 88/1/2 92/1/2
f 88/1/2 72/1/2 92/1/2
f 65/1/2 67/1/2 93/1/2
f 67/4/2 91/4/2 93/4/2
f 91/4/2 92/4/2 93/4/2
f 68/1/2 66/1/2 94/1/2
f 93/4/2 92/4/2 94/4/2
f 92/4/2 68/4/2 94/4/2
f 65/1/2 93/1/2 95/1/2
f 63/4/2 65/4/2 95/4/2
f 93/1/2 94/1/2 95/1/2
f 94/1/2 66/1/2 96/1/2
f 95/1/2 94/1/2 96/1/2
f 66/4/2 64/4/2 96/4/2
f 63/4/2 95/4/2 97/4/2
f 61/1/2 63/1/2 97/1/2
f 95/4/2 96/4/2 97/4/2
f 96/4/2 64/4/2 98/4/2
f 97/4/2 96/4/2 98/4/2
f 64/1/2 62/1/2 98/1/2
f 61/1/2 97/1/2 99/1/2
f 59/4/2 61/4/2 99/4/2
f 97/1/2 98/1/2 99/1/2
f 98/1/2 62/1/2 100/1/2
f 99/1/2 98/1/2 100/1/2
f 62/4/2 60/4/2 100/4/2
f 59/4/2 99/4/2 101/4/2
f 56/1/2 59/1/2 101/1/2
f 99/4/2 100/4/2 101/4/2
f 100/4/2 60/4/2 102/4/2
f 101/4/2 100/4/2 102/4/2
f 60/1/2 57/1/2 102/1/2
f 89/3/2 90/3/2 103/3/2
f 56/1/2 101/1/2 104/1/2
f 103/3/2 90/3/2 104/3/2
f 90/3/2 56/3/2 104/3/2
f 101/1/2 102/1/2 104/1/2
f 57/3/2 58/3/2 105/3/2
f 104/1/2 102/1/2 105/1/2
f 102/1/2 57/1/2 105/1/2
f 105/3/2 58/3/2 106/3/2
f 104/3/2 105/3/2 107/3/2
f 107/3/2 105/3/2 108/3/2
f 104/3/2 107/3/2 109/3/2
f 107/2/2 108/2/2 110/2/2
f 109/3/2 107/3/2 110/3/2
f 108/3/2 105/3/2 111/3/2
f 110/2/2 108/2/2 111/2/2
f 111/3/2 105/3/2 112/3/2
f 115/3/3 114/3/3 113/3/3
f 116/3/3 114/3/3 115/3/3
f 117/3/3 115/3/3 113/3/3
f 118/3/3 115/3/3 117/3/3
f 119/3/3 115/3/3 118/3/3
f 120/3/3 115/3/3 119/3/3
f 121/3/3 119/3/3 118/3/3
f 121/2/3 120/2/3 119/2/3
f 122/3/3 115/3/3 120/3/3
f 122/2/3 120/2/3 121/2/3
f 123/3/3 122/3/3 121/3/3
f 124/3/3 115/3/3 122/3/3
f 124/3/3 122/3/3 123/3/3
f 125/2/3 116/2/3 115/2/3
f 125/3/3 115/3/3 124/3/3
f 126/2/3 116/2/3 125/2/3
f 127/3/3 117/3/3 113/3/3
f 127/2/3 118/2/3 117/2/3
f 128/3/3 121/3/3 118/3/3
f 128/2/3 118/2/3 127/2/3
f 128/3/3 123/3/3 121/3/3
f 129/2/3 124/2/3 123/2/3
f 129/3/3 123/3/3 128/3/3
f 129/3/3 128/3/3 127/3/3
f 130/3/3 125/3/3 124/3/3
f 130/2/3 124/2/3 129/2/3
f 130/3/3 126/3/3 125/3/3
f 131/3/3 129/3/3 127/3/3
f 131/3/3 130/3/3 129/3/3
f 132/3/3 130/3/3 131/3/3
f 133/3/3 127/3/3 113/3/3
f 133/3/3 131/3/3 127/3/3
f 134/3/3 131/3/3 133/3/3
f 135/3/3 133/3/3 113/3/3
f 135/2/3 134/2/3 133/2/3
f 136/3/3 131/3/3 134/3/3
f 136/2/3 134/2/3 135/2/3
f 137/3/3 126/3/3 130/3/3
f 137/3/3 130/3/3 132/3/3
f 138/3/3 126/3/3 137/3/3
f 139/3/3 136/3/3 135/3/3
f 140/3/3 136/3/3 139/3/3
f 141/3/3 137/3/3 132/3/3
f 141/2/3 138/2/3 137/2/3
f 142/2/3 138/2/3 141/2/3
f 143/2/3 140/2/3 139/2/3
f 143/3/3 139/3/3 135/3/3
f 144/3/3 136/3/3 140/3/3
f 144/2/3 140/2/3 143/2/3
f 145/3/3 131/3/3 136/3/3
f 145/3/3 136/3/3 144/3/3
f 145/3/3 144/3/3 143/3/3
f 145/2/3 132/2/3 131/2/3
f 146/3/3 141/3/3 132/3/3
f 146/2/3 132/2/3 145/2/3
f 146/3/3 142/3/3 141/3/3
f 147/3/3 145/3/3 143/3/3
f 147/3/3 146/3/3 145/3/3
f 148/3/3 146/3/3 147/3/3
f 149/3/3 146/3/3 148/3/3
f 150/3/3 142/3/3 146/3/3
f 150/3/3 146/3/3 149/3/3
f 151/3/3 135/3/3 113/3/3
f 151/3/3 143/3/3 135/3/3
f 151/3/3 147/3/3 143/3/3
f 152/2/3 148/2/3 147/2/3
f 152/3/3 147/3/3 151/3/3
f 153/3/3 149/3/3 148/3/3
f 153/2/3 148/2/3 152/2/3
f 154/2/3 150/2/3 149/2/3
f 154/3/3 149/3/3 153/3/3
f 155/3/3 142/3/3 150/3/3
f 155/2/3 150/2/3 154/2/3
f 156/3/3 142/3/3 155/3/3
f 161/3/3 158/3/3 157/3/3
f 162/3/3 158/3/3 161/3/3
f 163/3/3 160/3/3 159/3/3
f 164/3/3 160/3/3 163/3/3
f 165/3/3 160/3/3 164/3/3
f 166/2/3 162/2/3 161/2/3
f 167/3/3 158/3/3 162/3/3
f 167/2/3 162/2/3 166/2/3
f 168/3/3 164/3/3 163/3/3
f 169/2/3 165/2/3 164/2/3
f 169/3/3 164/3/3 168/3/3
f 170/2/3 165/2/3 169/2/3
f 171/3/3 167/3/3 166/3/3
f 172/3/3 158/3/3 167/3/3
f 172/3/3 167/3/3 171/3/3
f 173/3/3 169/3/3 168/3/3
f 173/3/3 170/3/3 169/3/3
f 174/3/3 170/3/3 173/3/3
f 175/3/4 176/3/4 179/3/4
f 179/3/4 176/3/4 180/3/4
f 175/3/4 179/3/4 181/3/4
f 179/2/4 180/2/4 181/2/4
f 181/2/4 180/2/4 182/2/4
f 181/3/4 182/3/4 183/3/4
f 183/3/4 182/3/4 184/3/4
f 181/3/4 183/3/4 185/3/4
f 183/2/4 184/2/4 185/2/4
f 185/2/4 184/2/4 186/2/4
f 175/3/4 181/3/4 187/3/4
f 181/3/4 185/3/4 187/3/4
f 185/3/4 186/3/4 187/3/4
f 187/3/4 186/3/4 188/3/4
f 177/3/4 178/3/4 189/3/4
f 189/3/4 178/3/4 190/3/4
f 191/3/4 192/3/4 193/3/4
f 193/3/4 192/3/4 194/3/4
f 191/3/4 193/3/4 195/3/4
f 195/3/4 193/3/4 196/3/4
f 193/2/4 194/2/4 197/2/4
f 196/3/4 193/3/4 197/3/4
f 194/3/4 192/3/4 198/3/4
f 197/2/4 194/2/4 198/2/4
f 196/3/4 197/3/4 199/3/4
f 197/3/4 198/3/4 199/3/4
f 199/3/4 198/3/4 200/3/4
f 195/2/4 196/2/4 201/2/4
f 196/3/4 199/3/4 202/3/4
f 201/2/4 196/2/4 202/2/4
f 200/3/4 198/3/4 203/3/4
f 198/3/4 192/3/4 204/3/4
f 203/3/4 198/3/4 204/3/4
f 202/3/4 199/3/4 205/3/4
f 199/2/4 200/2/4 205/2/4
f 201/3/4 202/3/4 205/3/4
f 200/3/4 203/3/4 206/3/4
f 205/2/4 200/2/4 206/2/4
f 201/3/4 205/3/4 207/3/4
f 205/3/4 206/3/4 207/3/4
f 207/3/4 206/3/4 208/3/4
f 206/3/4 203/3/4 209/3/4
f 208/3/4 206/3/4 209/3/4
f 203/2/4 204/2/4 209/2/4
f 209/2/4 204/2/4 210/2/4
f 207/2/4 208/2/4 211/2/4
f 208/3/4 209/3/4 212/3/4
f 211/2/4 208/2/4 212/2/4
f 209/3/4 210/3/4 212/3/4
f 211/3/4 212/3/4 213/3/4
f 212/3/4 210/3/4 214/3/4
f 213/3/4 212/3/4 214/3/4
f 219/3/5 218/3/5 217/3/5
f 220/3/5 218/3/5 219/3/5
f 221/3/5 216/3/5 215/3/5
f 221/2/5 217/2/5 216/2/5
f 222/3/5 219/3/5 217/3/5
f 222/2/5 217/2/5 221/2/5
f 223/2/5 220/2/5 219/2/5
f 223/3/5 219/3/5 222/3/5
f 223/3/5 222/3/5 221/3/5
f 224/2/5 220/2/5 223/2/5
f 225/3/5 223/3/5 221/3/5
f 225/3/5 224/3/5 223/3/5
f 226/3/5 224/3/5 225/3/5
f 227/3/5 224/3/5 226/3/5
f 228/3/5 224/3/5 227/3/5
f 229/3/5 225/3/5 221/3/5
f 229/2/5 226/2/5 225/2/5
f 230/3/5 227/3/5 226/3/5
f 230/2/5 226/2/5 229/2/5
f 231/2/5 228/2/5 227/2/5
f 231/3/5 227/3/5 230/3/5
f 231/3/5 230/3/5 229/3/5
f 232/3/5 224/3/5 228/3/5
f 232/2/5 228/2/5 231/2/5
f 233/3/5 221/3/5 215/3/5
f 233/3/5 231/3/5 229/3/5
f 233/3/5 232/3/5 231/3/5
f 233/3/5 229/3/5 221/3/5
f 234/3/5 224/3/5 232/3/5
f 234/3/5 232/3/5 233/3/5
f 237/3/5 236/3/5 235/3/5
f 238/3/5 236/3/5 237/3/5
f 245/3/5 240/3/5 239/3/5
f 246/2/5 241/2/5 240/2/5
f 246/3/5 240/3/5 245/3/5
f 247/3/5 242/3/5 241/3/5
f 247/2/5 241/2/5 246/2/5
f 248/2/5 243/2/5 242/2/5
f 248/3/5 242/3/5 247/3/5
f 249/3/5 244/3/5 243/3/5
f 249/2/5 243/2/5 248/2/5
f 250/3/5 244/3/5 249/3/5
f 253/3/6 254/3/6 257/3/6
f 254/2/6 255/2/6 257/2/6
f 255/3/6 256/3/6 258/3/6
f 257/2/6 255/2/6 258/2/6
f 251/3/6 252/3/6 259/3/6
f 252/2/6 253/2/6 260/2/6
f 259/3/6 252/3/6 260/3/6
f 253/3/6 257/3/6 261/3/6
f 260/2/6 253/2/6 261/2/6
f 257/3/6 258/3/6 261/3/6
f 258/3/6 256/3/6 262/3/6
f 261/3/6 258/3/6 262/3/6
f 263/3/6 264/3/6 265/3/6
f 265/3/6 264/3/6 266/3/6
f 263/3/6 265/3/6 267/3/6
f 265/2/6 266/2/6 268/2/6
f 267/3/6 265/3/6 268/3/6
f 266/3/6 264/3/6 269/3/6
f 268/2/6 266/2/6 269/2/6
f 269/3/6 264/3/6 270/3/6
f 273/3/6 274/3/6 275/3/6
f 275/3/6 274/3/6 276/3/6
f 271/3/6 272/3/6 277/3/6
f 272/2/6 273/2/6 277/2/6
f 273/3/6 275/3/6 278/3/6
f 277/2/6 273/2/6 278/2/6
f 275/2/6 276/2/6 279/2/6
f 278/3/6 275/3/6 279/3/6
f 277/3/6 278/3/6 279/3/6
f 276/3/6 274/3/6 280/3/6
f 279/2/6 276/2/6 280/2/6
f 277/3/6 279/3/6 281/3/6
f 279/3/6 280/3/6 281/3/6
f 281/3/6 280/3/6 282/3/6
f 282/3/6 280/3/6 283/3/6
f 280/3/6 274/3/6 284/3/6
f 283/3/6 280/3/6 284/3/6
f 277/3/6 281/3/6 285/3/6
f 281/2/6 282/2/6 285/2/6
f 282/3/6 283/3/6 286/3/6
f 285/2/6 282/2/6 286/2/6
f 283/2/6 284/2/6 287/2/6
f 286/3/6 283/3/6 287/3/6
f 287/2/6 284/2/6 288/2/6
f 277/3/6 285/3/6 289/3/6
f 271/3/6 277/3/6 289/3/6
f 287/3/6 288/3/6 289/3/6
f 286/3/6 287/3/6 289/3/6
f 285/3/6 286/3/6 289/3/6
f 289/3/6 288/3/6 290/3/6
